<?xml version="1.0" encoding="UTF-8"?>
<svg width="204px" height="147px" viewBox="0 0 204 147" version="1.1" xmlns="http://www.w3.org/2000/svg" xmlns:xlink="http://www.w3.org/1999/xlink">
    <!-- Generator: Sketch 52.6 (67491) - http://www.bohemiancoding.com/sketch -->
    <title>turbines</title>
    <desc>Created with Sketch.</desc>
    <g id="turbines" stroke="none" stroke-width="1" fill="none" fill-rule="evenodd">
        <polygon id="Rectangle-Copy-4" fill="#2C4051" points="110.384615 99 114.615385 99 118 147 107 147"></polygon>
        <g id="" transform="translate(112.500000, 99.500000) scale(-1, 1) translate(-112.500000, -99.500000) translate(77.000000, 64.000000)">
            <circle id="Oval-Copy-4" stroke-opacity="0" stroke="#979797" cx="35.5" cy="35.5" r="35.5"></circle>
            <path d="M37.9549511,33.5331398 L37.9584471,33.5107516 L69.397403,33.3853321 C70.0624689,33.5997147 70.3644653,34.1252287 70.3033922,34.961874 C70.2117827,36.2168419 66.982684,39.3092319 62.4067195,39.0896267 C57.8307549,38.8700215 50.6190022,39.5012193 42.2405703,35.9830367 C40.8264499,35.5422983 39.6279904,35.397708 38.6451916,35.5492656 C38.619107,37.2481466 37.246208,38.6203155 35.5470422,38.645225 L20.3781887,65.1621867 C19.859995,65.6309593 19.2538884,65.6297389 18.5598688,65.1585254 C17.5188395,64.4517053 16.4553005,60.1090288 18.9334665,56.2559298 C21.4116324,52.4028309 24.4708755,45.841671 31.7069269,40.3448274 C32.5741599,39.5448668 33.2102523,38.7694564 33.615204,38.0185963 C32.8497309,37.4448331 32.3544304,36.5302584 32.3544304,35.5 C32.3544304,34.935687 32.5030296,34.4060813 32.7632324,33.9481784 L17.1118234,7.08718186 C16.9649513,6.40402664 17.2690615,5.87973311 18.0241541,5.51430127 C19.156793,4.96615351 23.4494307,6.21643996 25.5472292,10.2891441 C27.6450278,14.3618483 31.7975375,20.2918104 32.9399179,29.3068366 C33.2578228,30.718718 33.7176271,31.8109453 34.3193305,32.5835184 C34.683893,32.4357889 35.0824454,32.3544304 35.5,32.3544304 C36.49296,32.3544304 37.3784608,32.8145174 37.9549511,33.5331398 Z" id="illo_turbine_blades_small" fill="#2C4051"><animateTransform attributeName="transform"
                          attributeType="XML"
                          type="rotate"
                          from="360 35.5 35.5"
                          to="0 35.5 035.5"
                          dur="12s"
                          repeatCount="indefinite"/></path>
        </g>
        <circle id="Oval-Copy-5" fill="#2C4051" cx="112.5" cy="99.5" r="4.5"></circle>
        <polygon id="Rectangle-Copy-4" fill="#2C4051" points="157.769231 91 161.230769 91 164 147 155 147"></polygon>
        <g id="Group" transform="translate(159.500000, 90.500000) scale(-1, 1) translate(-159.500000, -90.500000) translate(116.000000, 47.000000)">
            <circle id="Oval-Copy-4" stroke-opacity="0" stroke="#979797" cx="43.5" cy="43.5" r="43.5"></circle>
            <path d="M46.5081796,41.0899037 L46.5124633,41.0624703 L85.0362544,40.9087873 C85.8511942,41.1714815 86.2212462,41.8154211 86.1464102,42.8406061 C86.0341562,44.3783837 82.0773734,48.1676504 76.4702055,47.8985567 C70.8630377,47.629463 62.0261013,48.4029025 51.7595721,44.09189 C50.0267767,43.5518303 48.5582417,43.3746562 47.3539672,43.5603677 C47.3220043,45.6420951 45.6397197,47.3234852 43.5576433,47.3540081 L24.9704566,79.8466231 C24.3354868,80.4210346 23.5927928,80.4195392 22.7423745,79.8421368 C21.466747,78.9760332 20.1635372,73.6547254 23.2001631,68.9333225 C26.236789,64.2119196 29.9854389,56.1721884 38.8521499,49.4366195 C39.9148157,48.4563861 40.6942528,47.5062354 41.1904613,46.5861673 C40.2524872,45.8831053 39.6455696,44.7624293 39.6455696,43.5 C39.6455696,42.8085179 39.827656,42.1595644 40.146496,41.5984722 L20.968009,8.68429326 C20.7880389,7.84718757 21.160681,7.20474339 22.0859353,6.75696071 C23.4738168,6.08528669 28.7338094,7.61732784 31.3043513,12.6078245 C33.8748932,17.5983211 38.9631797,24.8646127 40.362998,35.9111941 C40.7525435,37.641246 41.3159655,38.979609 42.0532642,39.9262832 C42.4999816,39.7452625 42.9883485,39.6455696 43.5,39.6455696 C44.7167256,39.6455696 45.801776,40.2093382 46.5081796,41.0899037 Z" id="illo_turbine_blades_medium" fill="#2C4051"><animateTransform attributeName="transform"
                          attributeType="XML"
                          type="rotate"
                          from="360 43.5 43.5"
                          to="00 43.5 43.5"
                          dur="8s"
                          repeatCount="indefinite" /></path>
        </g>
        <circle id="Oval-Copy-5" fill="#2C4051" cx="159.5" cy="90.5" r="5.5"></circle>
        <polygon id="Rectangle-Copy-4" fill="#2C4051" points="60.8461538 71 68.1538462 71 74 147 55 147"></polygon>
        <g id="Group" transform="translate(64.500000, 70.500000) scale(-1, 1) translate(-64.500000, -70.500000) translate(6.000000, 12.000000)">
            <circle id="Oval-Copy-4" stroke-opacity="0" stroke="#979797" cx="58.5" cy="58.5" r="58.5"></circle>
            <path d="M62.5454828,55.2588361 L62.5512437,55.2219428 L114.359101,55.0152656 C115.455054,55.368544 115.95271,56.2345318 115.852069,57.613229 C115.701107,59.6812747 110.379916,64.777185 102.839242,64.4153004 C95.298568,64.0534157 83.4144121,65.0935586 69.6077004,59.29599 C67.2773893,58.5697029 65.302463,58.3314342 63.6829214,58.5811842 C63.6399369,61.3807486 61.3775541,63.6419284 58.5775203,63.6829764 L33.5809589,107.379941 C32.727034,108.152426 31.7282386,108.150415 30.5845726,107.373908 C28.8690736,106.209148 27.1164811,99.0529066 31.2002194,92.7034337 C35.2839577,86.3539608 40.3252455,75.5419085 52.249443,66.4837297 C53.6785452,65.1654848 54.7267538,63.8876958 55.3940686,62.6503629 C54.1326551,61.7048658 53.3164557,60.1977497 53.3164557,58.5 C53.3164557,57.5700758 53.5613305,56.6973452 53.9901153,55.9427729 L28.1983569,11.6788771 C27.9563282,10.5531143 28.4574676,9.68913766 29.7017751,9.08694716 C31.5682363,8.18366142 38.6420195,10.2439926 42.0989552,16.9553501 C45.5558909,23.6667077 52.3987589,33.4386171 54.2812731,48.2943645 C54.8051447,50.620986 55.5628502,52.4208535 56.5543897,53.693967 C57.1551476,53.4505254 57.811917,53.3164557 58.5,53.3164557 C60.1362861,53.3164557 61.5954918,54.0746272 62.5454828,55.2588361 Z" id="illo_turbine_blades_large" fill="#2C4051"><animateTransform attributeName="transform"
                          attributeType="XML"
                          type="rotate"
                          from="360 58.5 58.5"
                          to="0 58.5 58.5"
                          dur="25s"
                          repeatCount="indefinite" /></path>
        </g>
        <circle id="Oval-Copy-5" fill="#2C4051" cx="64.5" cy="70.5" r="7.5"></circle>
    </g>
</svg>